<?xml version="1.0" encoding="UTF-8"?>
<svg id="Camada_2" data-name="Camada 2" xmlns="http://www.w3.org/2000/svg" viewBox="0 0 209.15 87.99">
  <defs>
    <style>
      .cls-1 {
        fill: #d12f13;
      }

      .cls-1, .cls-2 {
        fill-rule: evenodd;
      }

      .cls-2, .cls-3 {
        fill: #144390;
      }
    </style>
  </defs>
  <g id="Camada_1-2" data-name="Camada 1">
    <g>
      <path class="cls-2" d="M36.12,44.79c-.75,4.33-3.43,7.83-7.67,10.5-3.81,2.4-8.62,3.6-13.44,3.6-4.25,0-7.71-.94-10.37-2.82C1.63,53.95.09,50.97,0,47.11c-.02-1.03.08-2.16.31-3.38L6.61,10.24h11.15l-5.89,31.3c-.83,4.41-1.76,10.02,5.25,9.74,5.71-.23,7.78-3.82,8.65-8.33l6.21-32.16,10.08-.05-5.93,34.05ZM59.03,29.01l4.06-5.14,6.06.32c4.57.24,6.7,2.6,5.5,9l-4.56,24.33-10.03-.3,3.89-19.46c.89-4.47.49-8.74-4.92-8.74ZM51.92,57.51h-10.64l6.16-33.72h10.24l-5.75,33.72ZM95.59,19.26h-10.67l1.61-8.41h10.67l-1.61,8.41ZM88.68,57.87l-10.12.1,5.8-34.08h10.42l-6.09,33.98ZM119.15,38.43c.37-1.93.54-3.52.51-4.79-.04-1.79-.4-3.08-1.08-3.88-.67-.8-1.57-.83-2.51-.8-3.28.11-5.13,4.94-6.28,9.72-.89,3.72-1.04,7.14-.99,7.94.19,3.1-1.46,5.92,6.03,5.27l-4.56,5.94c-.08.11-8.26.67-10.31-2.22-1.22-1.71-2.34-4.5-1.88-7.75,1.46-10.34,2.45-16.98,5.42-20.66,3.43-4.26,9.5-5.28,14.39-3.38,1.41.55,2.68,1.89,3.14,3.48l3.11-17.36,10.34.1-8.32,47.83h-10.58c1.13-6.73,2.12-12.66,3.55-19.44ZM150.92,51.83c-2.3.15-4.51.28-5.58-.57-1.86-1.49-1.3-5.17-.08-7.03,1.94-2.96,5.82-3.05,9.16-3.05-1,8.35-2.3,9.75-2.97,16.49l10.22.1c1.23-8.22,2.72-16.05,4.33-24.2.28-1.4.39-2.66.33-3.74-.12-2.14-1.39-3.66-3.12-4.71-4.84-2.95-15.99-3-20.68-.22-3.12,1.84-3.92,5.01-5.18,8.54l10.17.23c.77-3.54,1.16-5.4,5.51-5.13,4.63.29,3.05,4.35,2.13,7.75-18.49-1.89-22.84,8.69-21.36,15.96.41,2.04.93,3.22,2.75,4.37,2.35,1.5,6.73,1.46,9.55,1.22.21-.02,4.59-5.93,4.84-6.01ZM192.13,33.92c-.08-3.11-.99-4.66-3.34-4.66-1.95,0-3.29.9-4.61,2.7-1.33,1.8-1.6,4.91-2.32,8.56-.18.93-.32,1.98-.49,3.13-.17,1.15-.24,2.18-.22,3.07.04,1.55-.36,3.21.19,4.16.55.95,1.47,1.43,2.76,1.43,2.35,0,4.03-1.61,5.1-3.63,1.4-2.62,3-11.48,2.92-14.76ZM201.85,40.32c-1.09,5.61-2.55,10.93-6.21,14.19-3.66,3.27-8.38,3.9-13.16,3.9-4.38,0-7.64-1.2-9.78-3.6-1.82-2.04-2.18-4.74-2.27-8.3-.03-1.11.01-2.11.12-3,.11-.89.27-1.96.52-3.2,1.33-6.58,3.3-11.86,8.04-14.89,3.32-2.12,7.39-2.3,11.24-2.3s7.05.94,9.13,2.63c4.66,3.8,3.34,9.54,2.37,14.56Z"/>
      <path class="cls-1" d="M136.97,20.36c7.27-10.46,25.92-13.02,38.87-10.27,6.34,1.35,17.12,2.02,25.09-1.35,6.2-2.62,8.44-9.5,8.19-8.68-1.9,6.32-2.85,11.67-9.15,15.34-4.74,2.76-11.2,4.21-19.42,3.58-4.07-.31-33.78-6.44-43.58,1.38"/>
      <path class="cls-3" d="M195.01,75.84c0-.56-.08-.97-.25-1.22-.12-.17-.28-.26-.48-.26s-.42.1-.64.31c-.44.43-.92,1.3-1.43,2.62-.51,1.32-.77,2.45-.77,3.41,0,.37.06.63.17.8.12.16.24.25.38.25.3,0,.6-.18.9-.54.43-.52.83-1.15,1.18-1.89.62-1.31.93-2.47.93-3.48M198.18,73.86l-1.92,6.94-.2.85c-.02.1-.03.18-.03.23,0,.09.03.16.08.22.06.06.12.09.17.09.14,0,.33-.11.58-.33.1-.09.34-.41.71-.96l.35.19c-.47.9-.97,1.56-1.5,1.98-.53.41-1.11.62-1.72.62-.38,0-.67-.1-.86-.31-.2-.21-.3-.47-.3-.78,0-.27.11-.77.32-1.51l.24-.85c-.77,1.38-1.5,2.36-2.21,2.94-.41.33-.85.5-1.31.5-.61,0-1.05-.26-1.32-.79-.27-.53-.41-1.12-.41-1.78,0-.98.28-2.1.85-3.37.57-1.27,1.32-2.29,2.24-3.06.76-.64,1.48-.96,2.14-.96.37,0,.67.11.89.34.22.23.39.64.49,1.24l.36-1.29,2.35-.15ZM187.06,80.87l.3.28c-.64.81-1.27,1.4-1.9,1.77-.83.5-1.68.75-2.57.75-.59,0-1.12-.14-1.58-.4-.46-.27-.8-.64-1.02-1.12-.22-.48-.33-.98-.33-1.49,0-1.14.29-2.26.88-3.36.59-1.1,1.36-1.98,2.33-2.62.97-.64,1.92-.96,2.85-.96.75,0,1.31.17,1.69.52.38.35.57.78.57,1.29,0,.47-.14.86-.43,1.19-.28.33-.6.49-.95.49-.3,0-.56-.11-.76-.31-.2-.21-.3-.46-.3-.74,0-.38.18-.71.53-.98.24-.19.37-.36.37-.51,0-.12-.05-.23-.15-.3-.13-.11-.3-.17-.52-.17-.56,0-1.08.23-1.57.71-.65.63-1.14,1.42-1.49,2.38-.35.96-.52,1.87-.52,2.73,0,.68.18,1.22.52,1.63.35.41.77.61,1.25.61.42,0,.88-.12,1.37-.35.49-.23.96-.58,1.4-1.04ZM178.97,73.72l-2.03,7.42c-.11.42-.17.7-.17.84,0,.07.03.15.09.21.06.06.12.1.19.1.11,0,.22-.05.34-.16.29-.26.65-.72,1.07-1.4l.34.21c-1,1.83-2.06,2.74-3.19,2.74-.43,0-.77-.13-1.03-.38-.25-.25-.38-.58-.38-.96,0-.26.06-.58.17-.98l1.38-4.99c.13-.48.2-.84.2-1.08,0-.15-.06-.29-.19-.41-.13-.12-.3-.17-.51-.17-.1,0-.22,0-.36,0l.13-.42,3.37-.57h.59ZM178.35,68.92c.41,0,.76.15,1.04.44.28.3.42.66.42,1.09s-.14.79-.43,1.09c-.28.3-.63.45-1.03.45s-.74-.15-1.02-.45c-.28-.3-.43-.66-.43-1.09s.14-.79.42-1.09c.28-.3.63-.44,1.03-.44ZM173.97,71.17l-.8,2.84h1.3l-.35,1.2h-1.28l-1.66,6.05c-.1.38-.16.66-.16.86,0,.09.03.17.09.23.06.07.13.1.2.1.11,0,.23-.05.35-.15.3-.24.66-.67,1.06-1.27l.35.23c-.46.84-.96,1.45-1.51,1.84-.55.39-1.09.58-1.62.58-.45,0-.8-.12-1.05-.36-.25-.24-.37-.54-.37-.91,0-.41.09-.92.26-1.56l1.57-5.64h-1.35l.2-.77c.85-.32,1.56-.71,2.14-1.15.58-.44,1.28-1.14,2.1-2.12h.52ZM167.8,73.72l-.43,3.22h-.37c-.05-.83-.29-1.49-.73-1.97-.43-.48-.9-.72-1.39-.72-.3,0-.56.09-.75.28-.2.19-.3.41-.3.68,0,.22.04.43.13.63.08.2.28.46.58.79,1.04,1.18,1.68,1.99,1.9,2.44.23.45.34.92.34,1.43,0,.55-.13,1.07-.4,1.56-.27.49-.66.89-1.19,1.18-.52.3-1.07.44-1.64.44-.39,0-.86-.08-1.42-.24-.37-.11-.65-.17-.83-.17-.17,0-.29.02-.39.08-.09.05-.19.16-.31.33h-.37l.49-3.47h.31c.23.84.45,1.44.65,1.8.2.36.47.64.81.85.34.21.66.32.97.32.37,0,.66-.12.9-.36.24-.24.36-.53.36-.86s-.08-.64-.23-.95c-.16-.31-.51-.78-1.07-1.43-.78-.88-1.28-1.57-1.53-2.05-.17-.35-.26-.74-.26-1.19,0-.75.26-1.37.78-1.88.52-.5,1.25-.75,2.19-.75.41,0,.91.08,1.51.23.3.07.54.11.71.11.26,0,.47-.11.63-.35h.36ZM158.88,68.92h3.06l-3.34,3.65h-.89l1.18-3.65ZM159.81,73.72l-2.03,7.42c-.11.42-.17.7-.17.84,0,.07.03.15.09.21.06.06.12.1.19.1.11,0,.22-.05.33-.16.3-.26.66-.72,1.07-1.4l.33.21c-1,1.83-2.06,2.74-3.18,2.74-.43,0-.77-.13-1.03-.38-.26-.25-.38-.58-.38-.96,0-.26.05-.58.17-.98l1.38-4.99c.13-.48.2-.84.2-1.08,0-.15-.06-.29-.19-.41-.13-.12-.3-.17-.52-.17-.1,0-.22,0-.36,0l.13-.42,3.36-.57h.6ZM146.8,83.82c-.63.26-1.06.53-1.28.83-.23.3-.34.62-.34.97,0,.45.23.86.68,1.22.45.37,1.18.55,2.17.55.83,0,1.43-.16,1.79-.47.37-.32.56-.69.56-1.11,0-.38-.17-.68-.51-.92-.34-.24-.99-.48-1.96-.74-.45-.12-.82-.24-1.1-.33ZM150.22,74.23c-.32,0-.6.11-.82.33-.36.34-.67.91-.94,1.71-.27.8-.4,1.56-.4,2.28,0,.34.09.61.28.81.19.2.42.3.7.3s.51-.1.7-.29c.38-.38.7-.99.98-1.83.28-.84.42-1.6.42-2.28,0-.31-.09-.55-.27-.74-.18-.19-.4-.28-.65-.28ZM152.29,74.35h2.64l-.32,1.15h-1.37c.21.41.32.8.32,1.17,0,.63-.16,1.22-.49,1.75-.33.54-.81.96-1.45,1.29-.64.32-1.35.48-2.13.48-.2,0-.43-.02-.68-.05-.25-.03-.51-.07-.81-.13-.44.23-.71.42-.82.56-.08.1-.12.2-.12.3,0,.12.05.23.15.32.17.16.43.28.77.35,1.35.31,2.24.56,2.67.74.59.26,1.03.59,1.33.99.3.4.45.89.45,1.46,0,.87-.38,1.63-1.14,2.28-.76.65-1.94.98-3.53.98s-2.79-.28-3.55-.83c-.55-.41-.83-.89-.83-1.44,0-.42.18-.82.54-1.18.36-.36,1.13-.68,2.32-.96-.4-.24-.67-.45-.81-.65-.19-.26-.29-.54-.29-.82,0-.47.18-.88.53-1.23.35-.36.95-.71,1.78-1.05-.65-.27-1.12-.62-1.41-1.05-.29-.43-.43-.93-.43-1.5,0-.61.17-1.18.52-1.73.35-.54.86-.99,1.54-1.33.68-.34,1.46-.51,2.33-.51.57,0,1.06.07,1.5.2.22.07.48.21.78.44ZM140.55,74.27c-.35,0-.64.11-.87.32-.46.44-.99,1.46-1.57,3.07-.58,1.61-.87,3.06-.87,4.35,0,.32.09.58.28.79.19.21.4.31.65.31s.49-.09.69-.25c.29-.25.65-.81,1.07-1.68.42-.87.77-1.83,1.04-2.89.27-1.05.41-2.02.41-2.89,0-.36-.08-.64-.25-.84-.16-.2-.36-.3-.57-.3ZM140.96,73.72c.52,0,1.01.13,1.47.38.46.25.81.61,1.04,1.06.24.45.35.95.35,1.5,0,1.13-.3,2.25-.9,3.38-.6,1.12-1.38,2.01-2.36,2.66-.98.65-1.97.98-2.96.98-.9,0-1.59-.28-2.09-.84-.49-.56-.74-1.25-.74-2.06,0-.97.19-1.87.55-2.72.37-.84.83-1.58,1.4-2.21.57-.63,1.22-1.14,1.95-1.53.73-.4,1.49-.59,2.28-.59ZM131.96,83.38h-10.74l.11-.38c.64,0,1.11-.13,1.4-.39.29-.26.57-.85.82-1.76l2.5-9.09c.14-.5.21-.89.21-1.18s-.1-.5-.3-.67c-.2-.17-.59-.26-1.17-.29l.11-.39h6.46l-.11.39c-.62.01-1.09.16-1.4.44-.31.28-.58.84-.82,1.7l-2.28,8.31c-.29,1.06-.43,1.7-.43,1.93,0,.14.07.27.22.39.15.12.39.18.72.18,1.1,0,2.16-.26,3.18-.79,1.02-.53,1.89-1.32,2.59-2.37h.42l-1.49,3.96ZM111.04,78.93c.58-.09,1.03-.21,1.35-.37.32-.16.63-.41.94-.75.31-.35.58-.78.8-1.3.22-.53.34-1.02.34-1.48,0-.19-.05-.35-.16-.46-.1-.11-.23-.16-.39-.16-.32,0-.67.23-1.07.7-.73.85-1.33,2.13-1.81,3.83ZM110.96,79.47c-.06.45-.09.83-.09,1.12,0,.52.15.94.43,1.25.29.31.67.47,1.15.47s.93-.12,1.39-.35c.46-.24,1.01-.65,1.62-1.24l.29.28c-.76.97-1.5,1.66-2.22,2.06-.72.41-1.52.62-2.39.62-1.1,0-1.87-.28-2.29-.83-.42-.56-.63-1.2-.63-1.93,0-1.14.32-2.28.95-3.42.63-1.14,1.49-2.05,2.58-2.74,1.09-.69,2.18-1.03,3.28-1.03.56,0,.98.14,1.26.42.28.28.43.63.43,1.05,0,.51-.14,1-.42,1.48-.39.66-.87,1.18-1.45,1.58-.58.4-1.23.7-1.95.91-.48.14-1.13.25-1.94.31ZM102.35,73.72l-.43,3.22h-.37c-.05-.83-.29-1.49-.73-1.97-.43-.48-.9-.72-1.39-.72-.3,0-.56.09-.75.28-.2.19-.3.41-.3.68,0,.22.04.43.13.63.08.2.28.46.58.79,1.04,1.18,1.68,1.99,1.9,2.44.23.45.34.92.34,1.43,0,.55-.13,1.07-.4,1.56-.27.49-.66.89-1.19,1.18-.53.3-1.07.44-1.64.44-.39,0-.86-.08-1.42-.24-.37-.11-.65-.17-.83-.17-.17,0-.29.02-.39.08-.09.05-.19.16-.31.33h-.37l.49-3.47h.32c.23.84.45,1.44.65,1.8.2.36.47.64.81.85.34.21.66.32.97.32.37,0,.66-.12.9-.36.24-.24.36-.53.36-.86s-.08-.64-.23-.95c-.16-.31-.51-.78-1.07-1.43-.77-.88-1.28-1.57-1.53-2.05-.17-.35-.26-.74-.26-1.19,0-.75.26-1.37.78-1.88.52-.5,1.25-.75,2.19-.75.41,0,.91.08,1.51.23.3.07.54.11.71.11.26,0,.47-.11.63-.35h.36ZM89.04,78.93c.58-.09,1.03-.21,1.35-.37.32-.16.63-.41.94-.75.31-.35.58-.78.8-1.3.22-.53.34-1.02.34-1.48,0-.19-.05-.35-.16-.46-.1-.11-.23-.16-.39-.16-.31,0-.67.23-1.07.7-.73.85-1.33,2.13-1.81,3.83ZM88.96,79.47c-.06.45-.09.83-.09,1.12,0,.52.15.94.43,1.25.29.31.67.47,1.15.47s.93-.12,1.39-.35c.46-.24,1.01-.65,1.62-1.24l.29.28c-.76.97-1.5,1.66-2.22,2.06-.72.41-1.52.62-2.39.62-1.1,0-1.87-.28-2.29-.83-.42-.56-.63-1.2-.63-1.93,0-1.14.32-2.28.95-3.42.63-1.14,1.49-2.05,2.58-2.74,1.09-.69,2.18-1.03,3.28-1.03.56,0,.98.14,1.26.42.28.28.43.63.43,1.05,0,.51-.14,1-.42,1.48-.39.66-.87,1.18-1.45,1.58-.58.4-1.23.7-1.95.91-.48.14-1.13.25-1.94.31ZM85.96,71.17l-.8,2.84h1.3l-.35,1.2h-1.28l-1.66,6.05c-.11.38-.16.66-.16.86,0,.09.03.17.09.23.06.07.13.1.2.1.11,0,.23-.05.35-.15.3-.24.66-.67,1.06-1.27l.35.23c-.46.84-.96,1.45-1.51,1.84-.55.39-1.09.58-1.62.58-.45,0-.8-.12-1.05-.36-.25-.24-.37-.54-.37-.91,0-.41.09-.92.26-1.56l1.57-5.64h-1.35l.2-.77c.85-.32,1.56-.71,2.14-1.15.58-.44,1.28-1.14,2.1-2.12h.52ZM77.04,73.72l-1.5,5.86c1.23-2.86,2.15-4.62,2.78-5.28.36-.39.75-.58,1.15-.58.28,0,.5.11.67.32.17.21.26.51.26.9,0,.67-.16,1.24-.47,1.7-.2.3-.42.44-.66.44-.26,0-.46-.13-.6-.39-.13-.26-.22-.41-.28-.45-.05-.05-.11-.07-.17-.07-.06,0-.14.02-.21.06-.15.09-.34.29-.57.61-.23.32-.52.86-.87,1.62-.34.76-.61,1.4-.8,1.93-.19.52-.46,1.52-.8,3h-2.4l1.64-6.91c.12-.52.18-.86.18-1.03,0-.19-.03-.33-.1-.44-.06-.1-.15-.18-.26-.23-.11-.05-.34-.07-.68-.07l.09-.3,3-.69h.6ZM68.34,74.27c-.35,0-.64.11-.87.32-.46.44-.99,1.46-1.57,3.07-.58,1.61-.87,3.06-.87,4.35,0,.32.09.58.28.79.19.21.4.31.65.31s.49-.09.69-.25c.29-.25.65-.81,1.07-1.68.42-.87.77-1.83,1.04-2.89.27-1.05.41-2.02.41-2.89,0-.36-.08-.64-.25-.84-.16-.2-.36-.3-.57-.3ZM68.75,73.72c.52,0,1.01.13,1.47.38.46.25.81.61,1.04,1.06.24.45.35.95.35,1.5,0,1.13-.3,2.25-.9,3.38-.6,1.12-1.38,2.01-2.36,2.66-.98.65-1.97.98-2.96.98-.9,0-1.59-.28-2.09-.84-.49-.56-.74-1.25-.74-2.06,0-.97.19-1.87.55-2.72.37-.84.83-1.58,1.4-2.21.57-.63,1.22-1.14,1.95-1.53.73-.4,1.49-.59,2.28-.59ZM54.69,82.31c.2.34.38.57.54.68.16.11.34.17.56.17s.42-.06.62-.18c.2-.12.45-.37.75-.73.3-.37.58-.84.86-1.42.27-.58.49-1.23.66-1.97.17-.73.25-1.43.25-2.1,0-.54-.09-.93-.27-1.17-.18-.25-.4-.37-.66-.37-.23,0-.45.06-.65.19-.3.18-.65.52-1.05,1.01l-1.59,5.88ZM53.15,74.3l3.28-.58h.6l-.45,1.7c.69-.67,1.26-1.12,1.71-1.35.44-.23.88-.35,1.32-.35.62,0,1.1.25,1.44.76.34.5.51,1.12.51,1.85,0,1.99-.66,3.76-1.97,5.31-1.16,1.36-2.43,2.04-3.81,2.04-.25,0-.45-.02-.63-.07-.17-.05-.41-.16-.72-.32l-.51,1.88c-.19.68-.28,1.2-.28,1.56,0,.22.07.4.22.53.15.13.49.23,1.02.33l-.09.38h-5.34l.1-.38c.42-.01.78-.16,1.06-.43.28-.27.55-.86.79-1.76l2.42-8.77c.18-.65.27-1.12.27-1.39,0-.12-.03-.22-.08-.3-.05-.08-.13-.13-.24-.17-.11-.04-.35-.05-.71-.05l.11-.41ZM51.57,73.72l-.43,3.22h-.37c-.05-.83-.29-1.49-.73-1.97-.43-.48-.9-.72-1.4-.72-.3,0-.56.09-.75.28-.2.19-.3.41-.3.68,0,.22.04.43.13.63.08.2.28.46.58.79,1.04,1.18,1.68,1.99,1.9,2.44.23.45.34.92.34,1.43,0,.55-.13,1.07-.4,1.56-.27.49-.66.89-1.19,1.18-.52.3-1.07.44-1.64.44-.39,0-.86-.08-1.42-.24-.37-.11-.65-.17-.83-.17-.17,0-.29.02-.39.08-.09.05-.19.16-.31.33h-.37l.49-3.47h.31c.23.84.45,1.44.65,1.8.2.36.47.64.81.85.34.21.66.32.97.32.37,0,.66-.12.9-.36.24-.24.36-.53.36-.86s-.08-.64-.23-.95c-.16-.31-.51-.78-1.07-1.43-.78-.88-1.28-1.57-1.53-2.05-.17-.35-.26-.74-.26-1.19,0-.75.26-1.37.78-1.88.52-.5,1.25-.75,2.19-.75.41,0,.91.08,1.51.23.3.07.54.11.71.11.26,0,.47-.11.63-.35h.36ZM38.14,73.72l-1.23,4.48c.83-1.31,1.45-2.2,1.86-2.68.6-.69,1.12-1.17,1.56-1.42.44-.25.85-.38,1.23-.38.35,0,.64.14.88.4.24.27.37.62.37,1.05,0,.39-.08.87-.24,1.42l-1.27,4.45c-.11.39-.16.64-.16.76,0,.07.03.13.07.19.05.06.1.09.16.09.06,0,.14-.03.21-.09.23-.2.47-.48.7-.85.06-.1.16-.24.29-.44l.38.24c-.98,1.72-1.99,2.57-3.07,2.57-.41,0-.73-.11-.96-.33-.23-.22-.35-.5-.35-.83,0-.29.08-.73.24-1.3l1.24-4.45c.08-.29.13-.51.13-.65,0-.07-.03-.14-.09-.2-.06-.06-.13-.09-.21-.09-.25,0-.56.18-.91.54-.91.92-1.8,2.28-2.65,4.1l-.81,3.1h-2.53l1.86-6.7c.18-.66.27-1.13.27-1.41,0-.12-.03-.22-.08-.3-.05-.08-.14-.14-.26-.19-.12-.04-.35-.07-.68-.07l.11-.39,3.34-.62h.61ZM29.11,75.84c0-.56-.08-.97-.25-1.22-.12-.17-.28-.26-.48-.26s-.42.1-.64.31c-.44.43-.92,1.3-1.43,2.62-.51,1.32-.77,2.45-.77,3.41,0,.37.06.63.17.8.11.16.24.25.38.25.3,0,.6-.18.9-.54.43-.52.83-1.15,1.18-1.89.62-1.31.93-2.47.93-3.48ZM32.29,73.86l-1.92,6.94-.2.85c-.02.1-.03.18-.03.23,0,.09.03.16.08.22.06.06.12.09.17.09.14,0,.33-.11.58-.33.1-.09.34-.41.71-.96l.35.19c-.47.9-.97,1.56-1.5,1.98-.53.41-1.11.62-1.72.62-.38,0-.67-.1-.86-.31-.2-.21-.3-.47-.3-.78,0-.27.11-.77.32-1.51l.24-.85c-.77,1.38-1.5,2.36-2.21,2.94-.41.33-.85.5-1.31.5-.61,0-1.05-.26-1.32-.79-.27-.53-.41-1.12-.41-1.78,0-.98.28-2.1.85-3.37.57-1.27,1.32-2.29,2.24-3.06.76-.64,1.48-.96,2.14-.96.37,0,.67.11.89.34.22.23.39.64.49,1.24l.36-1.29,2.35-.15ZM19.46,73.72l-1.5,5.86c1.23-2.86,2.15-4.62,2.78-5.28.36-.39.75-.58,1.15-.58.28,0,.5.11.67.32.17.21.26.51.26.9,0,.67-.16,1.24-.47,1.7-.2.3-.42.44-.66.44-.26,0-.46-.13-.6-.39-.13-.26-.22-.41-.28-.45-.05-.05-.11-.07-.17-.07s-.14.02-.21.06c-.15.09-.34.29-.57.61-.23.32-.52.86-.87,1.62-.34.76-.61,1.4-.8,1.93-.19.52-.46,1.52-.8,3h-2.4l1.64-6.91c.12-.52.18-.86.18-1.03,0-.19-.03-.33-.09-.44-.06-.1-.15-.18-.26-.23-.11-.05-.34-.07-.68-.07l.09-.3,3-.69h.6ZM6.25,69.24h10.82l-1.02,3.81h-.36c.01-.2.02-.38.02-.53,0-.72-.2-1.29-.61-1.68-.4-.4-1.08-.63-2.04-.68l-3,10.65c-.17.59-.25,1.03-.25,1.32,0,.26.1.47.3.63.21.16.62.24,1.25.26l-.09.38h-6.67l.12-.38c.68,0,1.17-.14,1.49-.4.31-.27.6-.87.85-1.8l3-10.65c-1.03.04-1.9.27-2.59.71-.69.44-1.33,1.17-1.9,2.19h-.39l1.06-3.81Z"/>
    </g>
  </g>
</svg>