<svg xmlns="http://www.w3.org/2000/svg" width="72" height="22" viewBox="0 0 72 22" fill="none">
            <path
              d="M71.9355 20.8719L62.4942 0.65206C62.4169 0.464241 62.2856 0.303606 62.1169 0.190544C61.9482 0.077482 61.7497 0.0170917 61.5467 0.0170386H53.9163C53.7284 0.0191554 53.5448 0.0737609 53.3863 0.17469C53.2278 0.27562 53.1007 0.418854 53.0192 0.588222L46.4137 14.8476C45.5166 13.8834 44.7068 13.0031 43.8198 12.1967C43.2453 11.6725 42.6069 11.0946 41.9887 10.6007C41.4444 10.1707 40.7993 9.66667 40.2247 9.25677C40.05 9.12573 40.0299 9.09885 40.1844 8.97118C41.1151 8.20176 49.152 1.50883 50.0961 0.719258C50.1632 0.672019 50.2134 0.604681 50.2396 0.526985C50.2659 0.44929 50.2667 0.365267 50.242 0.287073C50.2173 0.208878 50.1684 0.140567 50.1023 0.0920219C50.0362 0.0434771 49.9564 0.0172162 49.8744 0.0170386H41.6628C41.3055 0.0110858 40.9574 0.129905 40.6783 0.353029L31.0724 8.34623V5.00649C31.0618 4.7015 30.9645 4.40584 30.7919 4.15413C30.6194 3.90243 30.3787 3.7051 30.098 3.58525C29.8594 3.47774 29.5671 3.37694 29.2311 3.2291C27.073 2.39665 24.8546 1.72947 22.5953 1.23332C18.7481 0.396275 14.8199 -0.0116447 10.8827 0.0170386C4.76434 0.101036 0 2.55376 0 6.78388C0 11.1988 4.63666 12.4722 10.6845 13.4566C13.2514 13.8699 14.3804 14.0211 15.0188 14.3336C15.1375 14.3825 15.2398 14.4644 15.3135 14.5696C15.3872 14.6748 15.4292 14.7989 15.4345 14.9273C15.4398 15.0556 15.4082 15.1828 15.3434 15.2937C15.2787 15.4047 15.1835 15.4947 15.0692 15.5532C14.5551 15.8355 13.6513 15.9161 12.2502 15.8892C9.12885 15.8489 4.28723 15.0156 0.564463 13.077C0.506211 13.0456 0.440837 13.0299 0.374709 13.0314C0.30858 13.0328 0.243951 13.0513 0.187113 13.0852C0.130276 13.119 0.0831687 13.167 0.0503781 13.2244C0.0175875 13.2819 0.000231405 13.3468 0 13.413V18.6343C0.00224617 18.9408 0.0958225 19.2398 0.268778 19.4929C0.441734 19.7461 0.68622 19.9419 0.971011 20.0555C3.4271 21.0433 7.56314 21.9841 11.9411 21.9841C18.9129 21.9841 23.348 19.2458 23.348 14.7704C23.348 10.9031 19.3463 8.45375 12.8651 7.40546C10.1032 6.95523 8.80294 6.8242 8.25528 6.47477C8.15123 6.41472 8.06518 6.32788 8.00608 6.22329C7.94699 6.1187 7.91702 6.00018 7.91929 5.88007C7.92114 5.75931 7.95551 5.64128 8.01878 5.5384C8.08204 5.43552 8.17186 5.35159 8.2788 5.29544C8.69878 5.08041 9.48836 5.01321 10.6542 5.01657C14.7403 5.06693 18.7826 5.86401 22.5819 7.3685C23.1632 7.59282 23.7329 7.84626 24.2887 8.12784C24.4011 8.16472 24.4967 8.24045 24.5583 8.34144C24.6198 8.44243 24.6434 8.56206 24.6247 8.67886C24.6247 11.3365 24.6247 19.0946 24.6247 21.1878C24.6247 21.3913 24.7046 21.5867 24.8473 21.7319C24.9899 21.8771 25.1839 21.9604 25.3874 21.9639H30.2996C30.502 21.9631 30.696 21.8832 30.8404 21.7414C30.9847 21.5995 31.068 21.4069 31.0724 21.2046V16.4806L35.1244 13.1207C36.6382 14.2359 38.0792 15.4468 39.4385 16.746C40.2751 17.5557 41.011 18.3419 41.7535 19.2021C42.5565 20.1328 42.8421 20.5192 43.5746 21.517C43.6675 21.651 43.7916 21.7605 43.9361 21.836C44.0807 21.9115 44.2414 21.9507 44.4045 21.9505H49.2998C49.4936 21.9535 49.6841 21.9006 49.8486 21.7981C50.0131 21.6956 50.1445 21.5478 50.2272 21.3726L51.43 18.7888H64.0196L65.219 21.3524C65.3018 21.5273 65.4312 21.6761 65.593 21.7822C65.7549 21.8883 65.9429 21.9477 66.1363 21.9538H71.2299C71.358 21.9534 71.484 21.9211 71.5965 21.8599C71.709 21.7987 71.8045 21.7105 71.8745 21.6032C71.9445 21.4959 71.9867 21.3729 71.9973 21.2453C72.008 21.1176 71.9867 20.9893 71.9355 20.8719ZM61.3417 13.0467H54.1314C55.3443 10.4462 56.4833 8.00688 57.7365 5.31896L61.3417 13.0467Z"
              fill="#06598C" />
          </svg>
